<svg id="Capa_1" enable-background="new 0 0 510 510" height="512" viewBox="0 0 510 510" width="512" xmlns="http://www.w3.org/2000/svg"><g><g><path d="m60 330h-30v-30l17.167-11.491 12.833 11.491z" fill="#ffdc80"/></g><g><path d="m120 345h-30v-45l17.063-8.531 12.937 8.531z" fill="#ffdc80"/></g><g><path d="m480 330h-30v-30l13.667-8.491 16.333 8.491z" fill="#ffc55a"/></g><g><path d="m420 345h-30v-45l12.73-6.365 17.27 6.365z" fill="#ffc55a"/></g><g><path d="m151.075 300h-151.075v-60h30v30h121.076l5.501 18.146z" fill="#5facfb"/></g><g><path d="m510 300h-151.07l-4.93-16.658 4.93-13.342h121.07v-30h30z" fill="#7284fa"/></g><g><path d="m375 225h-33.877l-20.123-9.158-11.966-20.842h65.966z" fill="#7284fa"/></g><g><path d="m189.75 210-20.869 15h-33.881v-30h65.969z" fill="#5facfb"/></g><path d="m240 120v61.073l7.494 4.519 7.494-5.592 10-30.408-10-29.592z" fill="#5facfb"/><path d="m270 120h-15.012v60l6.012 3.842 9-2.769z" fill="#7284fa"/><path d="m150 285c0 57.894 47.096 104.993 104.988 105l10-114.491-10-95.509c-57.892.007-104.988 47.107-104.988 105z" fill="#4ad8fc"/><path d="m255 180c-.004 0-.008 0-.012 0v75 135h.012c57.897 0 105-47.103 105-105 0-57.896-47.103-105-105-105z" fill="#5facfb"/><g><path d="" fill="none" stroke="#f00" stroke-miterlimit="10" stroke-width="30"/></g><path d="" fill="none" stroke="#000" stroke-miterlimit="10" stroke-width="30"/><path d="m181.507 270h31.063c6.19-17.461 22.873-30 42.43-30l15-15-15-15c-36.219 0-66.523 25.809-73.493 60z" fill="#f9f9f9"/><path d="m255 210v30c19.557 0 36.239 12.539 42.43 30h31.064c-6.971-34.191-37.275-60-73.494-60z" fill="#e1def4"/></g></svg>