<svg id="Layer_1" height="512" viewBox="0 0 512 512" width="512" xmlns="http://www.w3.org/2000/svg" data-name="Layer 1"><path d="m466.86 311.88-18.4 47.72v.01c-12.66 8.65-19.72 22.34-42.02 22.34-32.62 0-32.62-29.3-65.24-29.3s-32.62 29.3-65.25 29.3-32.62-29.3-65.25-29.3-32.63 29.3-65.25 29.3-32.63-29.3-65.26-29.3c-19.77 0-27.56 10.76-37.89 19.23l-.32-.38-14.35-59.92.35-.08h437.88z" fill="#5fa8ed"/><path d="m379.65 233.51-29.33 36h-332.76l10.07 42.07.35-.08h437.88l1 .38 30.21-78.37z" fill="#fb6771"/><path d="m470.89 197.04h-65.26a10 10 0 0 0 -10 10v26.47h85.26v-26.47a10 10 0 0 0 -10-10z" fill="#5a5a77"/><path d="m447.45 62.83a13 13 0 0 0 -22.19 9.19v125.02h26v-125.02a12.962 12.962 0 0 0 -3.81-9.19z" fill="#6d6d93"/><path d="m346.11 160.52-9.08-8.68a9.994 9.994 0 0 1 -3.1-7.23v-12.23h24.61v12.23a9.994 9.994 0 0 1 -3.1 7.23l-9.2 8.8z" fill="#5a5a77"/><path d="m425.26 78.39v33.58l-82.74-45.67 5.15-11.14 77.37 23.23z" fill="#5a5a77"/><path d="m224.04 181.88h-.21v87.63h88.24v-87.63z" fill="#b28774"/><path d="m135.8 181.88h88.03v87.63h-88.03z" fill="#cca596"/><path d="m135.59 181.88h-88.03v87.63h88.24v-87.63z" fill="#b28774"/><path d="m179.92 93.67v88.03.18h88.03v-.18-88.03z" fill="#c79a83"/><path d="m179.71 93.67h-88.03v88.03.18h88.24v-.18-88.03z" fill="#e1b7a3"/><path d="m257.79 181.88v21.83l10.26-4.85 10.27 4.85v-21.83z" fill="#fb6771"/><path d="m169.55 181.88v21.83l10.27-4.85 10.26 4.85v-21.83z" fill="#fb6771"/><path d="m81.31 181.88v21.83l10.27-4.85 10.26 4.85v-21.83z" fill="#f9d438"/><path d="m145.96 93.67v21.82l-10.26-4.85-10.27 4.85v-21.82z" fill="#fb6771"/><path d="m234.2 93.67v21.82l-10.26-4.85-10.27 4.85v-21.82z" fill="#f9d438"/><path d="m57.98 311.5h-30l-.35.08 14.35 59.92.32.38c7.859-6.444 14.254-14.208 25.566-17.557l-10.236-42.743z" fill="#5493c6"/><path d="m47.56 181.88h30v87.63h-30z" fill="#916c5d"/><path d="m17.56 269.51 10.07 42.07.35-.08h29.631l-10.051-41.99z" fill="#db5d69"/><path d="m466.86 311.88.147-.38h-1.147z" fill="#fb6771"/><path d="m409.65 233.51h-30l-29.33 36h30z" fill="#db5d69"/><path d="m121.68 181.7v-88.03h-30v88.03.18h30z" fill="#c9a191"/><g fill="#284268"><path d="m497.066 228h-10.066v-20.962a16.147 16.147 0 0 0 -16.112-16.038h-13.888v-118.984a18.893 18.893 0 0 0 -37.727-1.6l-69.914-21.006a5.984 5.984 0 0 0 -7.156 3.23l-5.141 11.146a6 6 0 0 0 1.938 7.372v54.842h-5.065c-3.314 0-5.935 3.067-5.935 6.38v12.229a15.986 15.986 0 0 0 4.861 11.57l7.139 6.9v10.124a6.048 6.048 0 0 0 6.056 6 5.834 5.834 0 0 1 5.9 5.737 5.606 5.606 0 0 1 -5.6 5.737 5.793 5.793 0 0 1 -5.82-5.758 6 6 0 1 0 -12 0 17.7 17.7 0 1 0 23.464-16.684v-4.914l7.533-7.321h.258a15.92 15.92 0 0 0 5.209-11.391v-12.229a6.745 6.745 0 0 0 -6.462-6.38h-7.538v-48.162l68 37.673v75.489h-13.374a15.736 15.736 0 0 0 -15.626 16.038v20.962h-10.351a6 6 0 0 0 -4.649 2.21l-27.534 33.79h-29.466v-82.12a5.837 5.837 0 0 0 -5.927-5.88h-38.073v-82.333a5.764 5.764 0 0 0 -6.046-5.667h-176.277a5.455 5.455 0 0 0 -5.677 5.667v82.333h-38.443c-3.314 0-5.557 2.567-5.557 5.88v82.12h-24.436a5.654 5.654 0 0 0 -5.835 7.029l23.624 98.616c-5.269 3.728-11.311 6.3-20.419 6.3a6 6 0 0 0 0 12c18.612 0 28.187-8.6 36.635-16.185 7.836-7.036 14.6-13.113 28.619-13.113s20.785 6.077 28.621 13.113c8.449 7.587 18.024 16.185 36.637 16.185s28.188-8.6 36.636-16.185c7.836-7.036 14.6-13.113 28.619-13.113s20.782 6.077 28.618 13.113c8.449 7.587 18.024 16.185 36.635 16.185s28.185-8.6 36.632-16.185c7.835-7.036 14.6-13.113 28.614-13.113s20.779 6.077 28.613 13.113c8.448 7.586 18.022 16.185 36.631 16.185s28.188-8.6 36.636-16.185c7.836-7.036 14.6-13.113 28.618-13.113a6 6 0 0 0 0-12 50.116 50.116 0 0 0 -12.37 1.458l43.337-112.441a5.519 5.519 0 0 0 -.651-5.308 5.785 5.785 0 0 0 -4.948-2.356zm-66.066-155.984a7 7 0 0 1 14 0v118.984h-14zm-78 65.984v6.609a6.145 6.145 0 0 1 -1.469 3.391h-.116l-5.121 4.587-5.061-4.961a4.3 4.3 0 0 1 -1.233-3.017v-6.609zm-2.822-74.251.558-1.348 68.264 20.521v18.883zm51.822 143.289a3.735 3.735 0 0 1 3.626-4.038h65.262a4.134 4.134 0 0 1 4.112 4.038v20.962h-73zm-126.231 2.095a5.965 5.965 0 0 0 2.557.575 5.461 5.461 0 0 0 3.048-.932 5.853 5.853 0 0 0 2.626-5.068v-15.708h22v76h-76v-76h22v15.708a5.865 5.865 0 0 0 8.406 5.425l7.675-3.639zm-11.769-21.133h8v6.236l-1.541-.8a5.6 5.6 0 0 0 -4.942 0l-1.517.8zm-44-88h8v6.023l-1.6-.8a5.531 5.531 0 0 0 -4.912 0l-1.486.8zm-34 0h22v15.494a5.851 5.851 0 0 0 2.624 5.068 5.719 5.719 0 0 0 3.128.932 5.814 5.814 0 0 0 2.522-.575l7.681-3.639 7.692 3.639a5.8 5.8 0 0 0 5.669-.357 5.9 5.9 0 0 0 2.684-5.068v-15.494h22v76h-76zm-19.436 108.776a5.785 5.785 0 0 0 5.663.357l7.644-3.639 7.674 3.639a5.93 5.93 0 0 0 2.549.575 5.837 5.837 0 0 0 3.164-.932 5.956 5.956 0 0 0 2.742-5.068v-15.708h22v76h-76v-76h22v15.708a5.8 5.8 0 0 0 2.564 5.068zm9.436-20.776h8v6.236l-1.661-.8a5.467 5.467 0 0 0 -4.882 0l-1.457.8zm-45-88h9v6.023l-1.722-.8a6.512 6.512 0 0 0 -5.352 0l-1.926.8zm-33 0h21v15.494a6.212 6.212 0 0 0 3 5.068 6.361 6.361 0 0 0 3.319.932 6.229 6.229 0 0 0 2.617-.575l7.728-3.639 7.716 3.639a6.041 6.041 0 0 0 8.62-5.425v-15.494h22v76h-76zm-11 88h9v6.236l-1.781-.8a6.442 6.442 0 0 0 -5.322 0l-1.9.8zm-33 0h21v15.708a6.207 6.207 0 0 0 8.8 5.425l7.74-3.639 7.721 3.639a6.035 6.035 0 0 0 2.573.575 6.284 6.284 0 0 0 3.3-.932 6.08 6.08 0 0 0 2.866-5.068v-15.708h22v76h-76zm408.7 118h-309.7a6 6 0 0 0 0 12h305.071l-14.546 37.741c-3.089 2.269-5.831 4.73-8.463 7.093-7.835 7.037-14.6 13.114-28.618 13.114s-20.778-6.077-28.613-13.113c-8.447-7.586-18.021-16.185-36.631-16.185s-28.184 8.6-36.632 16.185c-7.835 7.036-14.6 13.113-28.614 13.113s-20.781-6.077-28.617-13.113c-8.448-7.586-18.024-16.185-36.636-16.185s-28.188 8.6-36.637 16.184c-7.835 7.037-14.6 13.114-28.618 13.114s-20.784-6.077-28.62-13.114c-8.449-7.586-18.024-16.184-36.638-16.184-17.11 0-26.58 7.267-34.561 14.333l-10.284-42.983h77.657a6 6 0 0 0 0-12h-80.53l-7.3-30h325.146a6 6 0 0 0 4.652-2.21l27.532-33.79h105.823z"/><path d="m153.283 225a6 6 0 0 0 6 6h41.633a6 6 0 0 0 0-12h-41.633a6 6 0 0 0 -6 6z"/><path d="m200.916 237h-42.2a6 6 0 0 0 0 12h42.2a6 6 0 0 0 0-12z"/><path d="m112.677 219h-41.633a6 6 0 1 0 0 12h41.633a6 6 0 1 0 0-12z"/><path d="m112.677 237h-42.2a6 6 0 0 0 0 12h42.2a6 6 0 1 0 0-12z"/><path d="m241.522 225a6 6 0 0 0 6 6h41.633a6 6 0 0 0 0-12h-41.633a6 6 0 0 0 -6 6z"/><path d="m289.155 237h-42.2a6 6 0 0 0 0 12h42.2a6 6 0 0 0 0-12z"/><path d="m245.035 131h-41.635a6 6 0 0 0 0 12h41.632a6 6 0 0 0 0-12z"/><path d="m245.035 149h-42.2a6 6 0 0 0 0 12h42.2a6 6 0 0 0 0-12z"/><path d="m156.8 131h-41.636a6 6 0 1 0 0 12h41.636a6 6 0 0 0 0-12z"/><path d="m156.8 149h-42.2a6 6 0 0 0 0 12h42.2a6 6 0 0 0 0-12z"/><path d="m357.16 285h-106a6 6 0 0 0 0 12h106a6 6 0 1 0 0-12z"/><path d="m374.162 291a6 6 0 0 0 6 6h38.229a6 6 0 1 0 0-12h-38.229a6 6 0 0 0 -6 6z"/><path d="m441.667 297h5.833a6 6 0 0 0 0-12h-5.837a6 6 0 1 0 0 12z"/><path d="m471.7 384.1c-18.612 0-28.187 8.6-36.636 16.184-7.835 7.037-14.6 13.114-28.618 13.114s-20.778-6.077-28.613-13.113c-8.449-7.585-18.023-16.185-36.633-16.185s-28.184 8.6-36.632 16.185c-7.835 7.036-14.6 13.113-28.614 13.113s-20.781-6.077-28.617-13.113c-8.448-7.585-18.024-16.185-36.637-16.185s-28.188 8.6-36.637 16.184c-7.835 7.037-14.6 13.114-28.618 13.114s-20.784-6.077-28.62-13.114c-8.448-7.584-18.025-16.184-36.637-16.184s-28.188 8.6-36.636 16.182c-7.836 7.037-14.6 13.114-28.618 13.114a6 6 0 0 0 0 12c18.612 0 28.187-8.6 36.635-16.185 7.836-7.036 14.6-13.113 28.619-13.113s20.785 6.076 28.621 13.113c8.449 7.586 18.024 16.185 36.637 16.185s28.188-8.6 36.636-16.185c7.836-7.036 14.6-13.113 28.619-13.113s20.782 6.077 28.618 13.113c8.449 7.586 18.024 16.185 36.635 16.185s28.185-8.6 36.632-16.186c7.835-7.036 14.6-13.112 28.614-13.112s20.779 6.076 28.613 13.112c8.448 7.587 18.022 16.186 36.631 16.186s28.188-8.6 36.636-16.185c7.836-7.037 14.6-13.113 28.618-13.113a6 6 0 0 0 0-12z"/><path d="m471.7 421.546c-18.612 0-28.187 8.6-36.636 16.184-7.835 7.037-14.6 13.113-28.618 13.113s-20.778-6.076-28.613-13.113c-8.447-7.585-18.021-16.184-36.631-16.184s-28.184 8.6-36.632 16.184c-7.835 7.037-14.6 13.113-28.614 13.113s-20.781-6.076-28.617-13.113c-8.448-7.586-18.024-16.184-36.636-16.184s-28.188 8.6-36.637 16.184c-7.835 7.037-14.6 13.113-28.618 13.113s-20.784-6.076-28.62-13.113c-8.449-7.586-18.024-16.184-36.638-16.184s-28.19 8.598-36.638 16.184c-7.836 7.037-14.6 13.113-28.618 13.113a6 6 0 0 0 0 12c18.611 0 28.187-8.6 36.635-16.184 7.836-7.036 14.6-13.113 28.619-13.113s20.785 6.077 28.621 13.113c8.449 7.586 18.024 16.184 36.637 16.184s28.188-8.6 36.636-16.184c7.836-7.036 14.6-13.113 28.619-13.113s20.782 6.077 28.618 13.113c8.449 7.586 18.024 16.184 36.635 16.184s28.185-8.6 36.632-16.184c7.835-7.036 14.6-13.113 28.614-13.113s20.779 6.077 28.613 13.113c8.448 7.586 18.022 16.184 36.631 16.184s28.188-8.6 36.636-16.184c7.836-7.036 14.6-13.113 28.618-13.113a6 6 0 0 0 0-12z"/></g></svg>