<svg id="Capa_1" enable-background="new 0 0 512 512" height="512" viewBox="0 0 512 512" width="512" xmlns="http://www.w3.org/2000/svg"><g><path d="m421 0h-30-30c-24.814 0-45 20.186-45 45v55h75 75v-55c0-24.814-20.186-45-45-45z" fill="#f04b37"/><path d="m466 45c0-24.814-20.186-45-45-45h-30v100h75z" fill="#cc2b20"/><path d="m391 226h-75v60c0 41.353-33.647 75-75 75s-75-33.647-75-75v-271c0-8.291-6.709-15-15-15h-45l-15 30-15-30h-45c-8.291 0-15 6.709-15 15v271c0 124.072 100.928 226 225 226 57.656 0 110.145-22.98 150-58.766 45.91-41.221 75-100.818 75-167.234v-60z" fill="#555a6e"/><path d="m466 286v-60h-75-75v60c0 41.353-33.647 75-75 75v151c57.656 0 110.145-22.98 150-58.766 45.91-41.221 75-100.818 75-167.234z" fill="#463c4b"/><path d="m391 241c-8.291 0-15 6.709-15 15v30c0 8.994-.894 18.018-2.666 26.821-1.848 9.234 5.169 17.959 14.722 17.959 1.022 0 1.968-.313 2.944-.515 5.72-1.176 10.521-5.446 11.748-11.526 2.153-10.752 3.252-21.767 3.252-32.739v-30c0-8.291-6.709-15-15-15z" fill="#d8dbf0"/><path d="m241 451c-12.642 0-25.21-1.436-37.383-4.263-8.071-1.86-13.081-9.932-11.206-18.003 1.846-8.086 9.932-13.169 18.003-11.206 17.373 4.028 36.035 4.585 53.628 1.509 8.203-1.348 15.923 4.058 17.329 12.231 1.406 8.159-4.058 15.923-12.231 17.329-9.214 1.597-18.692 2.403-28.14 2.403z" fill="#edf1f9"/><path d="m264.042 419.037c-7.546 1.319-15.289 1.966-23.042 1.961v30.002c9.448 0 18.926-.806 28.14-2.402 8.174-1.406 13.638-9.17 12.231-17.329-1.406-8.174-9.126-13.58-17.329-12.232z" fill="#d8dbf0"/><path d="m309.496 420.297c-4.482-6.958-2.476-16.245 4.497-20.728 15.249-9.829 28.198-22.397 38.467-37.397 4.717-6.826 14.004-8.569 20.859-3.896 6.826 4.688 8.569 14.019 3.896 20.859-12.554 18.296-28.359 33.662-46.992 45.659-6.982 4.492-16.243 2.457-20.727-4.497z" fill="#d8dbf0"/><g fill="#edf1f9"><path d="m144.013 419.477c-17.974-13.081-32.886-29.326-44.326-48.281-4.277-7.09-1.992-16.318 5.098-20.596 7.09-4.321 16.318-2.021 20.596 5.098 9.36 15.513 21.562 28.813 36.27 39.521 6.709 4.878 8.188 14.253 3.311 20.947-4.87 6.718-14.279 8.175-20.949 3.311z"/><path d="m92.494 322.343c-7.354 0-13.77-5.391-14.839-12.876-1.084-7.676-1.655-15.513-1.655-23.467v-38.584c0-8.291 6.709-15 15-15s15 6.709 15 15v38.584c0 6.519.454 12.935 1.362 19.219 1.282 8.973-5.644 17.124-14.868 17.124z"/><path d="m91 202.416c-8.291 0-15-6.709-15-15v-60c0-8.291 6.709-15 15-15s15 6.709 15 15v60c0 8.291-6.709 15-15 15z"/></g><g><path d="m491.605 125.605-25.605-25.605-15 21 15 21.422 4.395 4.395c5.859 5.859 15.351 5.86 21.211 0 5.859-5.86 5.859-15.352-.001-21.212z" fill="#cc2b20"/><path d="m316 100-25.605 25.605c-5.859 5.859-5.859 15.352 0 21.211s15.351 5.86 21.211 0l4.395-4.395 15-16.816z" fill="#f04b37"/><g><path d="m391 196h-60l-15 15v15c0 24.814 20.186 45 45 45h30 30c24.814 0 45-20.186 45-45v-15l-15-15z" fill="#f04b37"/></g><path d="m466 226v-15l-15-15h-60v75h30c24.814 0 45-20.186 45-45z" fill="#cc2b20"/><path d="m391 77.01c-25.856.086-51.722 9.345-75 22.99v111h75 75v-111c-23.095-13.537-48.451-23.082-75-22.99z" fill="#555a6e"/><path d="m466 100c-23.095-13.537-48.451-23.082-75-22.99v133.99h75z" fill="#463c4b"/></g><path d="m76 0v67.416c0 8.291 6.709 15 15 15s15-6.709 15-15v-67.416z" fill="#edf1f9"/></g></svg>